<?xml version="1.0" encoding="UTF-8" standalone="no"?><!-- Generator: Gravit.io --><svg xmlns="http://www.w3.org/2000/svg" xmlns:xlink="http://www.w3.org/1999/xlink" style="isolation:isolate" viewBox="0 0 512 512" width="512pt" height="512pt"><g><linearGradient id="_lgradient_0" x1="-8.375319976230977e-7" y1="0.5000003400187146" x2="0.9999998734815089" y2="0.5000003400187146" gradientTransform="matrix(487.932,0,0,511.999,12.034,0)" gradientUnits="userSpaceOnUse"><stop offset="4.8500000000000005%" stop-opacity="1" style="stop-color:rgb(255,219,237)"/><stop offset="99.92999999999999%" stop-opacity="1" style="stop-color:rgb(210,222,255)"/></linearGradient><path d=" M 286.593 4.867 C 192.242 32.613 211.166 98.452 200.613 171.406 C 187.442 262.458 130.518 215.771 65.117 264.943 C -47.937 349.944 34.186 537.579 174.585 509.083 C 249.137 493.952 264.371 438.988 294.778 380.259 C 334.111 304.287 399.336 325 457.844 275.403 C 576.499 174.821 420.441 -34.494 286.593 4.867 L 286.593 4.867 Z " fill="url(#_lgradient_0)"/></g><g><g style="opacity:0.1;"><g opacity="0.1"><path d=" M 411.304 271 C 416.642 265.072 421.595 259.115 426.111 253.156 C 454.418 215.807 462.656 182.508 449.31 159.392 C 435.964 136.276 403.01 126.763 356.508 132.601 C 349.09 133.533 341.454 134.844 333.651 136.503 C 331.186 128.916 328.504 121.647 325.601 114.757 C 324.989 113.304 324.369 111.878 323.742 110.469 C 328.627 106.369 331.734 100.22 331.734 93.344 C 331.734 80.999 321.726 70.991 309.381 70.991 C 306.416 70.991 303.588 71.574 300.999 72.622 C 287.372 56.388 272.044 47.784 256 47.784 C 229.308 47.784 204.589 71.569 186.397 114.757 C 183.495 121.647 180.812 128.916 178.347 136.503 C 170.544 134.844 162.909 133.533 155.49 132.601 C 108.985 126.762 76.034 136.276 62.688 159.392 C 49.342 182.508 57.581 215.808 85.887 253.156 C 90.403 259.114 95.356 265.072 100.694 271 C 95.532 276.733 90.736 282.493 86.341 288.255 C 84.222 287.588 81.967 287.228 79.628 287.228 C 67.283 287.228 57.275 297.236 57.275 309.581 C 57.275 315.815 59.829 321.451 63.946 325.505 C 54.472 347.782 53.907 367.4 62.687 382.608 C 73.467 401.28 97.041 411.077 130.212 411.077 C 138.108 411.077 146.548 410.521 155.488 409.399 C 162.906 408.467 170.542 407.156 178.345 405.497 C 180.81 413.084 183.492 420.353 186.395 427.243 C 204.586 470.431 229.305 494.216 255.998 494.216 C 282.691 494.216 307.409 470.431 325.601 427.243 C 328.503 420.353 331.186 413.084 333.651 405.497 C 341.454 407.156 349.089 408.467 356.508 409.399 C 365.451 410.522 373.887 411.077 381.784 411.077 C 414.952 411.076 438.53 401.278 449.309 382.608 C 462.655 359.492 454.416 326.192 426.11 288.844 C 421.595 282.885 416.642 276.928 411.304 271 L 411.304 271 Z  M 357.755 142.523 C 366.134 141.471 374.048 140.953 381.439 140.953 C 410.775 140.953 431.83 149.114 440.651 164.392 C 451.694 183.519 443.49 213.671 418.142 247.116 C 413.959 252.635 409.392 258.156 404.472 263.655 C 388.946 247.471 370.578 231.607 350.086 216.68 C 347.404 191.47 342.85 167.631 336.597 146.093 C 343.818 144.581 350.884 143.386 357.755 142.523 L 357.755 142.523 Z  M 233.94 378.046 C 217.279 384.6 200.902 389.855 185.166 393.689 C 179.723 375.083 175.588 354.663 172.876 333.07 C 183.929 340.668 195.515 347.987 207.543 354.931 C 216.403 360.046 225.32 364.849 234.241 369.336 C 233.857 370.977 233.648 372.685 233.648 374.444 C 233.647 375.671 233.75 376.873 233.94 378.046 L 233.94 378.046 Z  M 277.76 369.336 C 286.682 364.849 295.598 360.047 304.458 354.931 C 316.486 347.987 328.072 340.668 339.125 333.07 C 336.413 354.663 332.277 375.083 326.835 393.689 C 311.098 389.854 294.722 384.6 278.061 378.046 C 278.251 376.873 278.354 375.671 278.354 374.444 C 278.353 372.686 278.143 370.978 277.76 369.336 L 277.76 369.336 Z  M 299.458 346.271 C 290.79 351.275 282.073 355.973 273.355 360.36 C 269.257 355.316 263.006 352.09 256 352.09 C 248.994 352.09 242.743 355.316 238.645 360.36 C 229.927 355.972 221.21 351.275 212.542 346.271 C 198.118 337.943 184.347 329.079 171.407 319.839 C 169.875 304.013 169.084 287.655 169.084 270.999 C 169.084 254.343 169.876 237.986 171.407 222.159 C 184.347 212.919 198.117 204.055 212.542 195.727 C 226.966 187.399 241.528 179.906 256 173.319 C 270.472 179.906 285.034 187.399 299.458 195.727 C 313.882 204.055 327.653 212.919 340.593 222.159 C 342.125 237.985 342.916 254.343 342.916 270.999 C 342.916 287.655 342.124 304.012 340.593 319.839 C 327.653 329.079 313.882 337.944 299.458 346.271 L 299.458 346.271 Z  M 160.683 311.953 C 143.339 298.808 127.722 285.016 114.331 271 C 127.723 256.984 143.339 243.192 160.683 230.047 C 159.629 243.419 159.084 257.111 159.084 271 C 159.084 284.889 159.629 298.582 160.683 311.953 L 160.683 311.953 Z  M 207.542 187.068 C 195.514 194.012 183.928 201.331 172.875 208.929 C 175.587 187.336 179.723 166.916 185.165 148.31 C 203.999 152.899 223.752 159.528 243.808 167.976 C 231.701 173.75 219.57 180.124 207.542 187.068 Z  M 268.192 167.977 C 288.248 159.529 308.001 152.901 326.835 148.311 C 332.278 166.917 336.413 187.337 339.125 208.93 C 328.072 201.331 316.486 194.013 304.458 187.069 C 292.43 180.124 280.299 173.75 268.192 167.977 Z  M 351.317 230.047 C 368.661 243.192 384.278 256.984 397.669 271 C 384.277 285.016 368.661 298.808 351.317 311.953 C 352.371 298.581 352.916 284.889 352.916 271 C 352.916 257.111 352.371 243.419 351.317 230.047 L 351.317 230.047 Z  M 195.613 118.639 C 211.903 79.965 233.914 57.784 256 57.784 C 268.616 57.784 281.206 65.033 292.721 78.448 C 289.184 82.402 287.03 87.621 287.03 93.344 C 287.03 105.689 297.038 115.697 309.383 115.697 C 311.261 115.697 313.084 115.462 314.827 115.026 C 315.353 116.214 315.873 117.418 316.387 118.639 C 319.075 125.021 321.573 131.737 323.875 138.747 C 302.096 144.101 279.174 152.077 256 162.359 C 232.827 152.077 209.904 144.101 188.125 138.747 C 190.427 131.738 192.925 125.021 195.613 118.639 L 195.613 118.639 Z  M 93.858 247.116 C 68.51 213.672 60.306 183.52 71.349 164.392 C 80.17 149.113 101.221 140.953 130.561 140.953 C 137.95 140.953 145.868 141.471 154.245 142.523 C 161.116 143.386 168.181 144.581 175.403 146.092 C 169.15 167.63 164.596 191.469 161.914 216.679 C 141.422 231.606 123.054 247.47 107.528 263.654 C 102.609 258.156 98.041 252.635 93.858 247.116 L 93.858 247.116 Z  M 154.245 399.477 C 112.605 404.706 82.393 396.735 71.349 377.608 C 64.46 365.675 65.063 349.451 72.645 330.815 C 74.843 331.538 77.189 331.934 79.629 331.934 C 91.974 331.934 101.982 321.926 101.982 309.581 C 101.982 303.202 99.305 297.451 95.019 293.379 C 98.885 288.362 103.055 283.344 107.527 278.346 C 123.053 294.53 141.421 310.394 161.913 325.321 C 164.595 350.531 169.149 374.37 175.402 395.908 C 168.181 397.419 161.116 398.614 154.245 399.477 L 154.245 399.477 Z  M 316.387 423.361 C 300.097 462.035 278.086 484.216 256 484.216 C 233.914 484.216 211.903 462.035 195.613 423.361 C 192.925 416.979 190.427 410.263 188.125 403.253 C 204.154 399.313 220.802 393.954 237.716 387.296 C 241.761 393.04 248.44 396.797 255.999 396.797 C 263.558 396.797 270.237 393.04 274.282 387.296 C 291.196 393.954 307.844 399.312 323.873 403.253 C 321.573 410.262 319.075 416.979 316.387 423.361 L 316.387 423.361 Z  M 440.65 377.608 C 429.607 396.735 399.394 404.707 357.754 399.477 C 350.883 398.614 343.818 397.419 336.596 395.908 C 342.849 374.37 347.403 350.531 350.085 325.321 C 370.577 310.394 388.945 294.53 404.471 278.346 C 409.391 283.845 413.958 289.366 418.141 294.885 C 443.489 328.329 451.693 358.48 440.65 377.608 Z " fill="rgb(38,38,188)"/></g><g opacity="0.1"><circle vector-effect="non-scaling-stroke" cx="256" cy="271" r="47.485000000000014" fill="rgb(38,38,188)"/></g></g><g><circle vector-effect="non-scaling-stroke" cx="256" cy="247" r="47.485000000000014" fill="rgb(2,255,179)"/><path d=" M 271.67 240.871 L 259.503 240.871 L 259.503 217.017 C 259.503 215.905 258.009 215.542 257.499 216.53 L 239.388 251.58 C 239.023 252.286 239.536 253.129 240.331 253.129 L 252.498 253.129 L 252.498 276.983 C 252.498 278.095 253.992 278.458 254.502 277.47 L 272.613 242.42 C 272.978 241.713 272.465 240.871 271.67 240.871 L 271.67 240.871 Z " fill="rgb(255,255,255)"/></g><circle vector-effect="non-scaling-stroke" cx="309.383" cy="69.344" r="22.35300000000001" fill="rgb(159,176,254)"/><circle vector-effect="non-scaling-stroke" cx="79.63" cy="285.581" r="22.353000000000005" fill="rgb(255,126,184)"/><g><circle vector-effect="non-scaling-stroke" cx="256" cy="350.444" r="22.35300000000001" fill="rgb(255,255,255)"/><g><path d=" M 411.304 247 C 416.642 241.072 421.595 235.115 426.111 229.156 C 454.418 191.807 462.656 158.508 449.31 135.392 C 435.964 112.276 403.01 102.762 356.508 108.601 C 349.093 109.532 341.46 110.843 333.66 112.501 C 331.247 105.082 328.62 97.975 325.787 91.216 C 332.429 86.221 336.734 78.276 336.734 69.344 C 336.734 54.261 324.463 41.991 309.381 41.991 C 305.13 41.991 301.102 42.966 297.509 44.704 C 284.611 30.834 270.654 23.784 255.998 23.784 C 229.306 23.784 204.587 47.569 186.395 90.757 C 183.493 97.647 180.81 104.916 178.345 112.503 C 170.542 110.844 162.907 109.533 155.488 108.601 C 108.983 102.762 76.032 112.276 62.686 135.392 C 49.34 158.508 57.579 191.808 85.885 229.156 C 90.402 235.116 95.357 241.076 100.698 247.006 C 96.771 251.363 93.059 255.735 89.575 260.109 C 86.489 258.9 83.136 258.228 79.627 258.228 C 64.545 258.228 52.274 270.499 52.274 285.581 C 52.274 293.951 56.057 301.451 61.998 306.472 C 54.467 326.75 54.679 344.74 62.686 358.608 C 73.199 376.816 95.86 386.653 128.221 387.056 C 128.918 387.064 129.617 387.069 130.321 387.069 C 144.989 387.069 161.148 385.174 178.347 381.504 C 180.811 389.089 183.493 396.355 186.394 403.243 C 204.585 446.431 229.304 470.216 255.997 470.216 C 282.69 470.216 307.408 446.431 325.6 403.243 C 328.501 396.355 331.183 389.089 333.647 381.504 C 350.845 385.174 367.004 387.069 381.673 387.068 C 382.375 387.068 383.077 387.064 383.773 387.055 C 416.134 386.652 438.795 376.815 449.308 358.607 C 462.654 335.491 454.415 302.191 426.109 264.843 C 421.595 258.885 416.642 252.928 411.304 247 L 411.304 247 Z  M 357.755 118.523 C 399.391 113.293 429.607 121.265 440.651 140.392 C 451.694 159.519 443.49 189.671 418.142 223.116 C 413.959 228.635 409.392 234.156 404.472 239.655 C 388.948 223.473 370.583 207.612 350.095 192.686 C 347.417 167.455 342.871 143.62 336.615 122.089 C 343.83 120.579 350.889 119.385 357.755 118.523 L 357.755 118.523 Z  M 229.184 355.837 C 213.991 361.604 199.239 366.24 185.165 369.688 C 179.723 351.083 175.587 330.663 172.875 309.071 C 183.928 316.669 195.514 323.988 207.542 330.932 C 214.826 335.138 222.261 339.183 229.684 343.007 C 229.014 345.373 228.648 347.866 228.648 350.444 C 228.647 352.29 228.834 354.093 229.184 355.837 L 229.184 355.837 Z  M 256 333.091 C 265.568 333.091 273.353 340.875 273.353 350.444 C 273.353 360.013 265.569 367.797 256 367.797 C 246.431 367.797 238.647 360.012 238.647 350.444 C 238.647 340.876 246.432 333.091 256 333.091 Z  M 282.317 343.009 C 289.726 339.192 297.163 335.144 304.458 330.932 C 316.486 323.988 328.072 316.669 339.125 309.071 C 336.413 330.661 332.278 351.079 326.837 369.683 C 312.762 366.237 298.01 361.604 282.816 355.837 C 283.166 354.093 283.352 352.29 283.352 350.444 C 283.353 347.866 282.986 345.375 282.317 343.009 L 282.317 343.009 Z  M 299.458 322.271 C 292.347 326.377 285.099 330.323 277.878 334.046 C 272.883 327.399 264.936 323.091 256 323.091 C 247.065 323.091 239.117 327.399 234.123 334.045 C 226.889 330.315 219.644 326.371 212.542 322.271 C 198.118 313.943 184.347 305.079 171.407 295.839 C 169.875 280.013 169.084 263.655 169.084 246.999 C 169.084 230.349 169.875 213.996 171.406 198.175 C 184.363 188.917 198.137 180.044 212.542 171.727 C 226.966 163.399 241.528 155.906 256 149.319 C 270.472 155.906 285.034 163.399 299.458 171.727 C 313.887 180.058 327.662 188.926 340.606 198.169 C 342.131 213.975 342.916 230.327 342.916 246.999 C 342.916 263.655 342.124 280.012 340.593 295.839 C 327.653 305.079 313.882 313.944 299.458 322.271 L 299.458 322.271 Z  M 160.683 287.953 C 143.343 274.81 127.729 261.022 114.339 247.008 C 127.734 232.998 143.357 219.203 160.682 206.065 C 159.629 219.431 159.084 233.117 159.084 246.999 C 159.084 260.889 159.629 274.582 160.683 287.953 L 160.683 287.953 Z  M 172.874 184.937 C 175.586 163.341 179.722 142.918 185.165 124.311 C 203.999 128.9 223.751 135.529 243.808 143.977 C 231.701 149.75 219.57 156.124 207.542 163.069 C 195.528 170.004 183.939 177.326 172.874 184.937 Z  M 268.192 143.977 C 288.252 135.528 308.009 128.898 326.847 124.308 C 332.294 142.91 336.426 163.327 339.135 184.936 C 328.079 177.335 316.49 170.014 304.459 163.068 C 292.43 156.124 280.299 149.75 268.192 143.977 Z  M 351.324 206.052 C 368.665 219.196 384.279 232.985 397.669 247 C 384.277 261.016 368.661 274.808 351.317 287.953 C 352.371 274.581 352.916 260.889 352.916 247 C 352.916 233.099 352.373 219.411 351.324 206.052 Z  M 326.735 69.344 C 326.735 78.912 318.951 86.697 309.382 86.697 C 299.813 86.697 292.028 78.913 292.028 69.344 C 292.028 59.775 299.813 51.991 309.382 51.991 C 318.951 51.991 326.735 59.776 326.735 69.344 Z  M 195.613 94.639 C 211.903 55.965 233.914 33.784 256 33.784 C 267.486 33.784 278.716 39.468 289.416 50.676 C 284.839 55.568 282.029 62.132 282.029 69.344 C 282.029 84.426 294.3 96.697 309.383 96.697 C 311.958 96.697 314.448 96.332 316.813 95.663 C 319.342 101.739 321.695 108.114 323.876 114.747 C 302.097 120.101 279.174 128.077 256.001 138.359 C 232.828 128.077 209.905 120.101 188.126 114.747 C 190.427 107.738 192.925 101.021 195.613 94.639 L 195.613 94.639 Z  M 93.858 223.116 C 68.51 189.672 60.306 159.52 71.349 140.392 C 82.392 121.264 112.603 113.296 154.245 118.523 C 161.116 119.386 168.181 120.581 175.403 122.092 C 169.148 143.636 164.593 167.483 161.912 192.7 C 141.448 207.616 123.062 223.482 107.533 239.659 C 102.612 234.16 98.043 228.636 93.858 223.116 L 93.858 223.116 Z  M 79.63 268.228 C 89.198 268.228 96.983 276.012 96.983 285.581 C 96.983 295.15 89.199 302.934 79.63 302.934 C 70.061 302.934 62.277 295.149 62.277 285.581 C 62.277 276.013 70.062 268.228 79.63 268.228 L 79.63 268.228 Z  M 128.349 377.057 C 92.168 376.607 77.383 364.057 71.35 353.608 C 65.07 342.732 64.902 328.219 70.811 311.466 C 73.58 312.412 76.545 312.933 79.631 312.933 C 94.713 312.933 106.984 300.662 106.984 285.58 C 106.984 277.619 103.563 270.443 98.116 265.44 C 101.089 261.741 104.236 258.043 107.539 254.354 C 123.063 270.535 141.428 286.395 161.916 301.319 C 164.598 326.532 169.153 350.374 175.407 371.914 C 158.451 375.482 142.609 377.238 128.349 377.057 L 128.349 377.057 Z  M 316.387 399.361 C 300.097 438.035 278.086 460.216 256 460.216 C 233.914 460.216 211.903 438.035 195.613 399.361 C 192.925 392.978 190.426 386.261 188.124 379.25 C 202.494 375.705 217.506 370.974 232.93 365.111 C 237.791 372.729 246.312 377.796 255.999 377.796 C 265.686 377.796 274.207 372.729 279.068 365.111 C 294.492 370.974 309.505 375.705 323.874 379.25 C 321.573 386.261 319.075 392.978 316.387 399.361 L 316.387 399.361 Z  M 440.65 353.608 C 429.72 372.539 403.621 376.808 383.651 377.057 C 369.393 377.23 353.551 375.474 336.596 371.91 C 342.849 350.372 347.403 326.532 350.085 301.321 C 370.577 286.394 388.945 270.53 404.471 254.346 C 409.391 259.845 413.958 265.366 418.141 270.885 C 443.489 304.329 451.693 334.48 440.65 353.608 L 440.65 353.608 Z " fill="rgb(38,38,188)"/><path d=" M 273.922 197.659 C 271.33 196.719 268.459 198.055 267.516 200.652 C 266.573 203.247 267.912 206.115 270.508 207.059 C 287.241 213.138 298.485 229.189 298.485 247 C 298.485 270.426 279.426 289.484 256.001 289.484 C 232.576 289.484 213.516 270.426 213.516 247 C 213.516 229.435 224.557 213.461 240.992 207.251 C 243.575 206.275 244.878 203.39 243.902 200.807 C 242.925 198.224 240.044 196.921 237.457 197.897 C 217.156 205.567 203.517 225.301 203.517 247 C 203.517 275.94 227.061 299.484 256.001 299.484 C 284.941 299.484 308.484 275.94 308.484 247 C 308.484 224.998 294.595 205.169 273.922 197.659 L 273.922 197.659 Z " fill="rgb(38,38,188)"/></g></g><path d=" M 118.669 75.239 C 117.39 75.239 116.109 74.751 115.134 73.775 C 113.181 71.822 113.181 68.656 115.134 66.704 L 118.461 63.376 L 113.46 60.203 C 112.178 59.39 111.335 58.039 111.168 56.53 C 111.001 55.021 111.528 53.519 112.602 52.445 L 120.343 44.703 C 122.296 42.751 125.461 42.751 127.414 44.703 C 129.367 46.656 129.367 49.821 127.415 51.774 L 124.087 55.101 L 129.089 58.274 C 130.371 59.087 131.214 60.438 131.381 61.947 C 131.548 63.456 131.02 64.959 129.946 66.032 L 122.204 73.774 C 121.229 74.751 119.948 75.239 118.669 75.239 Z " fill="rgb(255,126,184)"/><path d=" M 393.849 344.091 C 392.57 344.091 391.289 343.603 390.314 342.627 C 388.361 340.674 388.361 337.508 390.314 335.556 L 393.641 332.228 L 388.64 329.055 C 387.358 328.242 386.515 326.891 386.348 325.382 C 386.181 323.873 386.708 322.371 387.782 321.297 L 395.523 313.555 C 397.476 311.603 400.641 311.603 402.594 313.555 C 404.547 315.508 404.547 318.673 402.595 320.626 L 399.267 323.953 L 404.269 327.126 C 405.551 327.939 406.394 329.29 406.561 330.799 C 406.728 332.308 406.2 333.811 405.126 334.884 L 397.384 342.626 C 396.408 343.603 395.128 344.091 393.849 344.091 Z " fill="rgb(255,126,184)"/><path d=" M 131.77 180.272 C 129.008 180.272 126.77 178.033 126.77 175.272 C 126.77 171.963 124.079 169.272 120.77 169.272 C 118.008 169.272 115.77 167.033 115.77 164.272 C 115.77 161.511 118.008 159.272 120.77 159.272 C 124.079 159.272 126.77 156.581 126.77 153.272 C 126.77 150.511 129.008 148.272 131.77 148.272 C 134.532 148.272 136.77 150.511 136.77 153.272 C 136.77 156.581 139.461 159.272 142.77 159.272 C 145.532 159.272 147.77 161.511 147.77 164.272 C 147.77 167.033 145.532 169.272 142.77 169.272 C 139.461 169.272 136.77 171.963 136.77 175.272 C 136.77 178.033 134.531 180.272 131.77 180.272 Z " fill="rgb(1,236,165)"/><path d=" M 153.213 449.105 C 150.451 449.105 148.213 446.866 148.213 444.105 C 148.213 440.796 145.522 438.105 142.213 438.105 C 139.451 438.105 137.213 435.866 137.213 433.105 C 137.213 430.344 139.451 428.105 142.213 428.105 C 145.522 428.105 148.213 425.414 148.213 422.105 C 148.213 419.344 150.451 417.105 153.213 417.105 C 155.975 417.105 158.213 419.344 158.213 422.105 C 158.213 425.414 160.904 428.105 164.213 428.105 C 166.975 428.105 169.213 430.344 169.213 433.105 C 169.213 435.866 166.975 438.105 164.213 438.105 C 160.904 438.105 158.213 440.796 158.213 444.105 C 158.213 446.866 155.975 449.105 153.213 449.105 Z " fill="rgb(101,131,254)"/><path d=" M 455.844 276.403 C 453.082 276.403 450.844 274.164 450.844 271.403 C 450.844 268.094 448.153 265.403 444.844 265.403 C 442.082 265.403 439.844 263.164 439.844 260.403 C 439.844 257.642 442.082 255.403 444.844 255.403 C 448.153 255.403 450.844 252.712 450.844 249.403 C 450.844 246.642 453.082 244.403 455.844 244.403 C 458.606 244.403 460.844 246.642 460.844 249.403 C 460.844 252.712 463.535 255.403 466.844 255.403 C 469.606 255.403 471.844 257.642 471.844 260.403 C 471.844 263.164 469.606 265.403 466.844 265.403 C 463.535 265.403 460.844 268.094 460.844 271.403 C 460.844 274.165 458.605 276.403 455.844 276.403 Z " fill="rgb(255,126,184)"/></g><g clip-path="url(#_clipPath_ufS5a5FUgV9t2N0VQYYJrYproOjbVP1W)"><text transform="matrix(1,0,0,1,296,485.468)" style="font-family:'Orbitron';font-weight:600;font-size:36px;font-style:normal;fill:#ff7eb8;stroke:none;">Quarks UI</text></g><defs><clipPath id="_clipPath_ufS5a5FUgV9t2N0VQYYJrYproOjbVP1W"><rect x="0" y="0" width="199" height="45.144" transform="matrix(1,0,0,1,296,449.072)"/></clipPath></defs></svg>